<?xml version="1.0" encoding="utf-8"?>
<!-- Generator: Adobe Illustrator 26.5.0, SVG Export Plug-In . SVG Version: 6.00 Build 0)  -->
<svg version="1.1" id="Layer_1" xmlns="http://www.w3.org/2000/svg" xmlns:xlink="http://www.w3.org/1999/xlink" x="0px" y="0px"
	 viewBox="0 0 37.4 19.3" style="enable-background:new 0 0 37.4 19.3;" xml:space="preserve">
<style type="text/css">
	.st0{fill:#d9230a;}
</style>
<g id="Manufactura_x5F_Textil_x5F_Patagonica">
	<path class="st0" d="M6.1,0C8,0,9.9,0,11.9,0c-0.5,0.1-0.9,0.5-1,1c-1.7,6-3.4,12-5.1,18c-1.9,0-3.9,0-5.8,0c1.1-4,2.3-8,3.4-12
		C3.8,6,4,4.8,4.3,3.8c0.3-1,0.6-2,0.9-3C5.3,0.3,5.7,0,6.1,0z"/>
	<path class="st0" d="M20.6,0c1.9,0,3.8,0,5.7,0c-0.5,0.1-0.8,0.5-0.9,1c-1.6,5.7-3.2,11.4-4.8,17.1c-0.1,0.5-0.4,1.1-1,1.1
		c-1.9,0-3.9,0-5.8,0c0.5-0.1,0.9-0.5,0.9-1c1.6-5.7,3.2-11.5,4.9-17.2C19.6,0.5,20,0,20.6,0z"/>
	<path class="st0" d="M12.2,0.4c0.5,0,1,0.4,1.1,0.9c0.9,3.4,1.9,6.7,2.8,10.1c-0.6,2.3-1.3,4.5-2,6.8c-0.2,0.7-1.2,0.9-1.7,0.4
		c-0.3-0.2-0.3-0.5-0.4-0.8c-0.9-3.2-1.8-6.3-2.7-9.5c0-0.2-0.1-0.4-0.1-0.6c0.6-2.2,1.2-4.4,1.9-6.5C11.4,0.7,11.8,0.4,12.2,0.4z"
		/>
	<path class="st0" d="M26.7,0.5c0.5,0,0.9,0.4,1,0.8c0.9,3.4,2,6.8,2.9,10.1c-0.6,2.3-1.3,4.5-2,6.8c-0.2,0.6-1.1,0.9-1.6,0.4
		c-0.3-0.2-0.4-0.7-0.5-1c-0.9-3.2-1.8-6.5-2.7-9.7c0-0.1,0-0.2,0-0.3c0.7-2.2,1.2-4.4,1.9-6.5C25.8,0.7,26.2,0.4,26.7,0.5z"/>
	<path class="st0" d="M31.5,9.7c2,0,3.9,0,5.9,0c-0.9,3-1.7,6-2.6,9c-0.2,0.4-0.7,0.7-1.2,0.6c-1.8,0-3.7,0-5.5,0
		c0.4-0.1,0.7-0.4,0.9-0.8C29.8,15.5,30.6,12.6,31.5,9.7z"/>
</g>
<g id="Layer_1_00000123423917010030466580000006578121057658217385_">
</g>
</svg>
